<?xml version="1.0" encoding="utf-8"?>
<!-- Generator: Adobe Illustrator 14.0.0, SVG Export Plug-In . SVG Version: 6.00 Build 43363)  -->
<!DOCTYPE svg PUBLIC "-//W3C//DTD SVG 1.1//EN" "http://www.w3.org/Graphics/SVG/1.1/DTD/svg11.dtd">
<svg version="1.1" id="レイヤー_1" xmlns="http://www.w3.org/2000/svg" xmlns:xlink="http://www.w3.org/1999/xlink" x="0px"
	 y="0px" width="595.28px" height="841.89px" viewBox="0 0 595.28 841.89" enable-background="new 0 0 595.28 841.89"
	 xml:space="preserve">
<symbol  id="新規シンボル" viewBox="-42.757 -41.913 85.515 83.826">
	<g>
		<g>
			<path display="none" fill="#5E525D" d="M-1.424,29.134c-1.735,2.842-1.445,7.266-1.445,7.311v0.01
				c0.544,0.056,1.093,0.09,1.65,0.09c2.484,0,4.826-0.603,6.904-1.64c-0.704-2.86-1.525-7.644,0.128-9.944
				c2.956-4.107,2.428-6.657,0.61-9.438c-0.918-1.409-3.305-2.395-5.802-2.395c-1.045,0-4.52,0.221-5.259,3.072
				c-0.68,2.626,1.109,5.002,5.637,7.479l1.853,1.152l-1.925,1.265C0.891,26.12,0.133,26.599-1.424,29.134z"/>
			<path fill="#5E525D" d="M7.563,14.783c-0.555-0.857-1.464-1.542-2.537-2.047c0.807,0.102,1.602,0.216,2.434,0.216
				c3.023,0,5.868-0.76,8.439-2.014c0.822,1.442,1.402,2.98,1.602,4.525c0.76,5.862-0.169,8.152-3.311,11.975
				c-3.143,3.824-6.638,9.105-6.638,9.105s-2.552-8.125-0.637-10.787C10.396,20.915,9.458,17.685,7.563,14.783z"/>
			<g>
				<path fill="#5E525D" d="M-19.058,20.077v0.086l0.916-0.043l0.914,0.043v-0.086c4.279-0.203,8.257-1.86,11.417-4.586
					c-0.046,0.123-0.105,0.235-0.141,0.37c-1.132,4.36,3.067,7.243,6.296,9.015c0,0-0.929,0.29-2.926,3.551
					c-1.994,3.263-1.386,10.4-1.386,10.4l-3.565-2.633c0,0-0.513-0.006-2.582-0.439c-1.732-0.363-2.498-0.664-2.734-0.907
					c-0.451,0.571-1.304,0.629-2.916,2.8c-0.886-4.994-2.788-4.17-4.015-14.432c0,0-0.192-1.26-0.048-3.207
					C-19.574,20.024-19.323,20.065-19.058,20.077z"/>
				<path fill="#5E525D" d="M0.852,11.786c-0.893-0.326-1.746-0.737-2.572-1.189c-0.39,0.67-0.821,1.313-1.28,1.922
					C-1.848,11.997-0.511,11.756,0.852,11.786z"/>
			</g>
		</g>
		<path fill="#5E525D" d="M-17.336,5.589v12.769c6.078-0.278,11.283-3.713,14.156-8.67c-3.994-2.649-6.938-6.747-8.078-11.664
			l-2.569,1.483c0.175,0.486,0.29,1.011,0.29,1.561C-13.537,3.332-15.18,5.206-17.336,5.589z M-11.676-8.742
			c-0.098,0.79-0.167,1.581-0.167,2.397c0,0.862,0.113,1.771,0.249,2.692l-3.044,1.759c-0.847-0.999-2.095-1.656-3.506-1.656
			c-1.415,0-2.659,0.657-3.504,1.656L-32.727-8.29c3.083-4.801,8.455-7.982,14.582-7.982c2.929,0,5.672,0.748,8.088,2.021
			C-10.834-12.521-11.432-10.703-11.676-8.742z M-22.752,1.064c0,2.268,1.643,4.142,3.802,4.524v12.769
			c-9.2-0.425-16.53-7.993-16.53-17.293c0-2.872,0.708-5.571,1.943-7.954l11.078,6.392C-22.639-0.009-22.752,0.511-22.752,1.064z"/>
		<path fill="#5E525D" d="M24.878-8.532c0.093,0.717,0.149,1.443,0.149,2.188c0,1.037-0.108,2.053-0.272,3.039
			c-1.453,8.25-8.629,14.533-17.295,14.533c-8.672,0-15.856-6.283-17.296-14.533c-0.175-0.986-0.283-2.005-0.283-3.039
			c0-0.744,0.062-1.471,0.152-2.188c1.078-8.67,8.46-15.388,17.427-15.388c7.865,0,14.508,5.173,16.746,12.303h-8.912
			c-0.657-3.011-4.117-4.956-7.834-4.956c-4.9,0-7.278,3.917-7.606,8.041H17.44H24.878z M-0.093-1.702
			C0.918,1.526,3.894,3.884,7.46,3.884c3.559,0,6.535-2.357,7.547-5.586H-0.093z"/>
		<g>
			<path fill="none" stroke="#5E525D" stroke-width="7.8851" stroke-linecap="round" stroke-linejoin="round" d="M-3.956-27.829
				l-8.25-7.366c-3.534-3.157-7.218-1.94-8.186,2.694l-2.42,11.629"/>
			<polygon fill="#5E525D" points="-5.67,-41.913 -4.92,-28.696 -18.139,-27.946 -12.218,-22.659 1.001,-23.406 0.251,-36.625 			
				"/>
		</g>
		<g>
			<path fill="none" stroke="#5E525D" stroke-width="7.8851" stroke-linecap="round" stroke-linejoin="round" d="M23.765,20.474
				l11.083-3.65c4.502-1.482,5.292-5.277,1.755-8.435l-7.141-6.382"/>
			<polygon fill="#5E525D" points="36.813,26.034 24.996,20.065 30.962,8.249 23.421,10.73 17.455,22.554 29.272,28.517 			"/>
		</g>
		<g>
			<path fill="none" stroke="#5E525D" stroke-width="7.8851" stroke-linecap="round" stroke-linejoin="round" d="M-31.417,20.474
				l-2.308,11.081c-0.965,4.64,1.439,7.384,5.344,6.099c3.907-1.289,5.572-1.836,5.572-1.836"/>
			<polygon fill="#5E525D" points="-42.757,29.003 -31.684,21.745 -24.428,32.82 -22.811,25.048 -30.065,13.972 -41.14,21.231 			
				"/>
		</g>
	</g>
</symbol>
<symbol  id="新規シンボル_1" viewBox="-163.285 -17.706 326.569 35.412">
	<g>
		<path fill="#5E525D" d="M-141.246-7.455c0-6.834-4.442-10.251-13.326-10.251c-2.92,0-5.824,0.25-8.713,0.746v33.454
			c2.733,0.497,5.482,0.745,8.247,0.745c8.169,0,12.254-2.748,12.254-8.246c0-1.927-0.622-3.573-1.864-4.939
			c-1.243-1.367-2.952-2.283-5.125-2.749V1.212c2.733-0.404,4.838-1.367,6.313-2.889C-141.984-3.2-141.246-5.126-141.246-7.455z
			 M-155.038,14.211c-1.615,0-3.122-0.14-4.52-0.419V2.563h3.122c6.771,0,10.158,1.987,10.158,5.964
			c0,1.926-0.699,3.355-2.097,4.287C-149.772,13.745-151.994,14.211-155.038,14.211z M-144.88-7.129
			c0,2.298-0.909,3.991-2.726,5.079c-1.817,1.086-4.76,1.631-8.83,1.631h-3.122v-13.839c1.521-0.279,3.184-0.419,4.985-0.419
			C-148.111-14.677-144.88-12.161-144.88-7.129z"/>
		<path fill="#5E525D" d="M-138.217,6.989h3.308l0.093-5.172h0.093c2.733,3.758,6.585,5.638,11.555,5.638V4.52
			c-3.448,0-6.236-0.948-8.364-2.843c-2.128-1.895-3.191-4.349-3.191-7.361v-11.555h-3.495V6.989z"/>
		<path fill="#5E525D" d="M-103.692-14.304c-2.081-2.269-4.846-3.402-8.293-3.402c-3.448,0-6.213,1.134-8.294,3.402
			c-2.081,2.267-3.122,5.326-3.122,9.178s1.041,6.912,3.122,9.18s4.846,3.401,8.294,3.401c3.448,0,6.212-1.134,8.293-3.401
			s3.122-5.328,3.122-9.18S-101.611-12.037-103.692-14.304z M-106.185,2.073c-1.414,1.725-3.347,2.586-5.801,2.586
			c-2.454,0-4.388-0.861-5.801-2.586c-1.414-1.724-2.12-4.123-2.12-7.199c0-3.074,0.706-5.475,2.12-7.198
			c1.413-1.724,3.347-2.586,5.801-2.586c2.454,0,4.387,0.862,5.801,2.586c1.413,1.724,2.12,4.124,2.12,7.198
			C-104.065-2.05-104.772,0.35-106.185,2.073z"/>
		<path fill="#5E525D" d="M-96.284,6.989l5.358-21.154h0.093l5.172,21.154h4.799l5.172-21.154h0.094l5.357,21.154h3.682
			l-6.896-24.229h-4.659l-5.172,20.827h-0.093l-5.172-20.827h-4.659l-6.896,24.229H-96.284z"/>
		<path fill="#5E525D" d="M-56.446,7.455c2.95,0,5.685-0.622,8.2-1.864l-0.745-2.748c-2.393,1.211-4.877,1.816-7.455,1.816
			c-1.802,0-3.177-0.326-4.124-0.979s-1.421-1.568-1.421-2.749c0-1.118,0.411-2.003,1.235-2.655
			c0.822-0.652,2.321-1.165,4.496-1.538c3.168-0.528,5.443-1.397,6.826-2.609c1.381-1.212,2.073-2.874,2.073-4.985
			c0-2.113-0.801-3.782-2.399-5.009c-1.601-1.228-3.829-1.841-6.687-1.841c-3.324,0-6.307,0.776-8.946,2.33l0.792,2.749
			c2.547-1.522,5.266-2.283,8.154-2.283c1.801,0,3.184,0.35,4.146,1.048c0.963,0.699,1.444,1.701,1.444,3.006
			c0,1.242-0.427,2.205-1.281,2.889s-2.353,1.211-4.496,1.584c-3.075,0.528-5.305,1.375-6.687,2.539
			c-1.382,1.166-2.073,2.757-2.073,4.776c0,1.987,0.784,3.571,2.354,4.753C-61.472,6.864-59.273,7.455-56.446,7.455z"/>
		<path fill="#5E525D" d="M-40.604-6.431c0.062-2.64,0.869-4.721,2.423-6.242c1.553-1.523,3.571-2.283,6.057-2.283
			c2.392,0,4.769,0.621,7.129,1.863l0.933-2.656c-2.609-1.305-5.405-1.957-8.388-1.957c-3.479,0-6.29,1.134-8.433,3.402
			c-2.144,2.267-3.216,5.326-3.216,9.178c0,3.914,1.002,6.99,3.006,9.227s4.729,3.354,8.177,3.354c3.355,0,5.956-1.064,7.805-3.192
			c1.848-2.127,2.772-5.18,2.772-9.155c0-0.403-0.031-0.917-0.093-1.538H-40.604z M-40.604-3.728h14.91
			c-0.031,2.703-0.684,4.783-1.957,6.244c-1.274,1.459-3.028,2.189-5.266,2.189c-2.329,0-4.17-0.738-5.521-2.213
			C-39.788,1.017-40.511-1.057-40.604-3.728z"/>
		<path fill="#5E525D" d="M-19.079,6.989h3.309l0.093-5.172h0.094c2.732,3.758,6.585,5.638,11.555,5.638V4.52
			c-3.447,0-6.236-0.948-8.363-2.843c-2.128-1.895-3.191-4.349-3.191-7.361v-11.555h-3.495V6.989z"/>
		<path fill="#5E525D" d="M11.905,14.211c-2.143,0-3.805-0.474-4.985-1.421s-1.771-2.26-1.771-3.938
			c0-3.014,2.205-5.188,6.616-6.523c3.852-1.117,6.593-2.516,8.224-4.193c1.631-1.677,2.446-3.852,2.446-6.522
			c0-3.014-0.939-5.319-2.818-6.919c-1.88-1.601-4.56-2.4-8.038-2.4c-3.852,0-7.269,0.979-10.25,2.936l1.118,3.075
			c2.702-1.927,5.746-2.889,9.132-2.889c2.299,0,4.062,0.528,5.289,1.585c1.227,1.055,1.84,2.593,1.84,4.612
			c0,1.864-0.521,3.347-1.561,4.45c-1.041,1.102-2.865,2.057-5.475,2.865C4.87,0.947,1.469,4.255,1.469,8.853
			c0,2.547,0.924,4.582,2.772,6.104c1.848,1.521,4.403,2.283,7.664,2.283c3.51,0,6.771-0.73,9.785-2.189l-0.932-2.889
			C18.056,13.527,15.104,14.211,11.905,14.211z"/>
		<path fill="#5E525D" d="M28.26-6.431c0.062-2.64,0.869-4.721,2.423-6.242c1.553-1.523,3.571-2.283,6.057-2.283
			c2.392,0,4.769,0.621,7.129,1.863l0.933-2.656c-2.609-1.305-5.405-1.957-8.388-1.957c-3.479,0-6.29,1.134-8.433,3.402
			c-2.144,2.267-3.216,5.326-3.216,9.178c0,3.914,1.002,6.99,3.006,9.227s4.729,3.354,8.177,3.354c3.355,0,5.956-1.064,7.805-3.192
			c1.848-2.127,2.772-5.18,2.772-9.155c0-0.403-0.031-0.917-0.093-1.538H28.26z M28.26-3.728h14.91
			c-0.031,2.703-0.684,4.783-1.957,6.244c-1.274,1.459-3.028,2.189-5.266,2.189c-2.329,0-4.17-0.738-5.521-2.213
			C29.075,1.017,28.353-1.057,28.26-3.728z"/>
		<path fill="#5E525D" d="M49.319-17.239v34.945h3.588v-34.945H49.319z"/>
		<path fill="#5E525D" d="M60.129-6.431c0.062-2.64,0.869-4.721,2.423-6.242c1.553-1.523,3.571-2.283,6.057-2.283
			c2.392,0,4.769,0.621,7.129,1.863l0.933-2.656c-2.609-1.305-5.405-1.957-8.388-1.957c-3.479,0-6.29,1.134-8.433,3.402
			c-2.144,2.267-3.216,5.326-3.216,9.178c0,3.914,1.002,6.99,3.006,9.227s4.729,3.354,8.177,3.354c3.355,0,5.956-1.064,7.805-3.192
			c1.848-2.127,2.772-5.18,2.772-9.155c0-0.403-0.031-0.917-0.093-1.538H60.129z M60.129-3.728h14.91
			c-0.031,2.703-0.684,4.783-1.957,6.244c-1.274,1.459-3.028,2.189-5.266,2.189c-2.329,0-4.17-0.738-5.521-2.213
			C60.944,1.017,60.222-1.057,60.129-3.728z"/>
		<path fill="#5E525D" d="M93.442,4.612c-2.734,0-4.862-0.846-6.384-2.539c-1.522-1.693-2.283-4.093-2.283-7.199
			c0-2.981,0.8-5.357,2.399-7.129c1.6-1.77,3.688-2.655,6.268-2.655c2.174,0,4.255,0.528,6.243,1.585l0.932-2.75
			c-2.329-1.088-4.769-1.631-7.314-1.631c-3.604,0-6.523,1.143-8.76,3.425c-2.236,2.283-3.355,5.335-3.355,9.155
			c0,3.945,1.072,7.028,3.216,9.25c2.143,2.22,5.109,3.331,8.899,3.331c2.546,0,4.985-0.544,7.314-1.631l-0.932-2.843
			C97.604,4.069,95.522,4.612,93.442,4.612z"/>
		<path fill="#5E525D" d="M112.498,14.91V6.058h9.179V3.262h-9.179v-12.72c0-2.176,0.295-3.627,0.885-4.357s1.693-1.095,3.309-1.095
			c1.429,0,2.796,0.264,4.101,0.792l0.559-2.749c-1.584-0.56-3.293-0.839-5.125-0.839c-2.641,0-4.505,0.566-5.592,1.701
			c-1.087,1.133-1.631,3.098-1.631,5.895V3.262h-5.357v2.796h5.357v8.853H112.498z"/>
		<path fill="#5E525D" d="M143.25-14.304c-2.082-2.269-4.846-3.402-8.294-3.402s-6.213,1.134-8.294,3.402
			c-2.081,2.267-3.122,5.326-3.122,9.178s1.041,6.912,3.122,9.18s4.846,3.401,8.294,3.401s6.212-1.134,8.294-3.401
			c2.08-2.268,3.121-5.328,3.121-9.18S145.33-12.037,143.25-14.304z M140.757,2.073c-1.414,1.725-3.348,2.586-5.801,2.586
			c-2.454,0-4.388-0.861-5.801-2.586c-1.414-1.724-2.12-4.123-2.12-7.199c0-3.074,0.706-5.475,2.12-7.198
			c1.413-1.724,3.347-2.586,5.801-2.586c2.453,0,4.387,0.862,5.801,2.586c1.413,1.724,2.12,4.124,2.12,7.198
			C142.877-2.05,142.17,0.35,140.757,2.073z"/>
		<path fill="#5E525D" d="M148.234,6.989h3.309l0.093-5.172h0.094c2.732,3.758,6.585,5.638,11.555,5.638V4.52
			c-3.447,0-6.236-0.948-8.363-2.843c-2.128-1.895-3.191-4.349-3.191-7.361v-11.555h-3.495V6.989z"/>
	</g>
</symbol>
<use xlink:href="#新規シンボル"  width="85.515" height="83.826" x="-42.757" y="-41.913" transform="matrix(1 0 0 -1 132.6675 436.291)" overflow="visible"/>
<use xlink:href="#新規シンボル_1"  width="326.569" height="35.412" id="XMLID_2_" x="-163.285" y="-17.706" transform="matrix(1 0 0 -1 356.2783 437.165)" overflow="visible"/>
<use xlink:href="#新規シンボル"  width="85.515" height="83.826" x="-42.757" y="-41.913" transform="matrix(1.5056 0 0 -1.5056 297.6406 652.0625)" overflow="visible"/>
<use xlink:href="#新規シンボル_1"  width="326.569" height="35.412" x="-163.285" y="-17.706" transform="matrix(0.8308 0 0 -0.8308 297.6406 750.0605)" overflow="visible"/>
<use xlink:href="#新規シンボル"  width="85.515" height="83.826" id="XMLID_1_" x="-42.757" y="-41.913" transform="matrix(2.7723 0 0 -2.7723 297.6392 170.6411)" overflow="visible"/>
</svg>
